HIERARCHY
ROOT RootJoint
{
    OFFSET   0.000000   0.000000   0.000000
    CHANNELS 6 Xposition Yposition Zposition Xrotation Yrotation Zrotation
    JOINT pelvis_lowerback
    {
        OFFSET   0.000000   0.093605   0.000000
        CHANNELS 3 Xrotation Yrotation Zrotation
        JOINT lowerback_torso
        {
            OFFSET   0.000000   0.100000   0.000000
            CHANNELS 3 Xrotation Yrotation Zrotation
            JOINT torso_head
            {
                OFFSET   0.000000   0.282350   0.000000
                CHANNELS 3 Xrotation Yrotation Zrotation
                End Site
                {
                    OFFSET   0.000000   0.192650   0.000000
                }
            }
            JOINT rTorso_Clavicle
            {
                OFFSET  -0.001000   0.157500   0.000000
                CHANNELS 3 Xrotation Yrotation Zrotation
                JOINT rShoulder
                {
                    OFFSET  -0.117647   0.000000   0.000000
                    CHANNELS 3 Xrotation Yrotation Zrotation
                    JOINT rElbow
                    {
                        OFFSET  -0.245000   0.000000   0.000000
                        CHANNELS 3 Xrotation Yrotation Zrotation
                        JOINT rWrist
                        {
                            OFFSET  -0.240000   0.000000   0.000000
                            CHANNELS 3 Xrotation Yrotation Zrotation
                            End Site
                            {
                                OFFSET  -0.116353  -0.002500   0.000000
                            }
                        }
                    }
                }
            }
            JOINT lTorso_Clavicle
            {
                OFFSET   0.001000   0.157500   0.000000
                CHANNELS 3 Xrotation Yrotation Zrotation
                JOINT lShoulder
                {
                    OFFSET   0.117647   0.000000   0.000000
                    CHANNELS 3 Xrotation Yrotation Zrotation
                    JOINT lElbow
                    {
                        OFFSET   0.245000   0.000000   0.000000
                        CHANNELS 3 Xrotation Yrotation Zrotation
                        JOINT lWrist
                        {
                            OFFSET   0.240000   0.000000   0.000000
                            CHANNELS 3 Xrotation Yrotation Zrotation
                            End Site
                            {
                                OFFSET   0.116353  -0.002500   0.000000
                            }
                        }
                    }
                }
            }
        }
    }
    JOINT rHip
    {
        OFFSET  -0.100000  -0.051395   0.000000
        CHANNELS 3 Xrotation Yrotation Zrotation
        JOINT rKnee
        {
            OFFSET   0.000000  -0.410000   0.000000
            CHANNELS 3 Xrotation Yrotation Zrotation
            JOINT rAnkle
            {
                OFFSET   0.000000  -0.390000   0.000000
                CHANNELS 3 Xrotation Yrotation Zrotation
                JOINT rToeJoint
                {
                    OFFSET   0.000000  -0.050000   0.130000
                    CHANNELS 3 Xrotation Yrotation Zrotation
                    End Site
                    {
                        OFFSET  -0.010000   0.002000   0.060000
                    }
                }
            }
        }
    }
    JOINT lHip
    {
        OFFSET   0.100000  -0.051395   0.000000
        CHANNELS 3 Xrotation Yrotation Zrotation
        JOINT lKnee
        {
            OFFSET   0.000000  -0.410000   0.000000
            CHANNELS 3 Xrotation Yrotation Zrotation
            JOINT lAnkle
            {
                OFFSET   0.000000  -0.390000   0.000000
                CHANNELS 3 Xrotation Yrotation Zrotation
                JOINT lToeJoint
                {
                    OFFSET   0.000000  -0.050000   0.130000
                    CHANNELS 3 Xrotation Yrotation Zrotation
                    End Site
                    {
                        OFFSET   0.010000   0.002000   0.060000
                    }
                }
            }
        }
    }
}
MOTION
Frames: 11
Frame Time:   0.008333
 -2.376719   0.925631   3.975860   0.000000   0.000000   0.000000   0.000000   0.000000   0.000000   0.000000   0.000000   0.000000   0.000000   0.000000   0.000000   0.000000   0.000000   0.000000   0.000000   0.000000   0.000000   0.000000   0.000000   0.000000   0.000000   0.000000   0.000000   0.000000   0.000000   0.000000   0.000000   0.000000   0.000000   0.000000   0.000000   0.000000   0.000000   0.000000   0.000000   0.000000   0.000000   0.000000   0.000000   0.000000   0.000000   0.000000   0.000000   0.000000   0.000000   0.000000   0.000000   0.000000   0.000000   0.000000   0.000000   0.000000   0.000000   0.000000   0.000000   0.000000   0.000000   0.000000   0.000000
 -2.376620   0.926088   3.976166  -0.197190  -0.047739   0.006695   0.096889   0.028897  -0.004998   0.099316  -0.158195   0.004971  -0.074575  -0.011443   0.068697   0.221891  -0.180479   0.181476   1.005886   0.426329   2.101402   0.018664   0.926722  -0.010073   0.400354  -0.591514  -2.515205   0.179348   0.379734  -0.233145   1.036943  -0.076385  -2.109503   0.022782  -1.110912   0.011976   0.439652   0.388641   2.650483   0.056342   0.098367  -0.172268   0.630949   0.000913   0.000273  -0.737122  -0.107825  -0.010428  -0.062285  -0.000095   0.000031   0.072826  -0.194817   0.142604   0.642094  -0.000846  -0.001353  -0.767063   0.203046   0.147486   0.215321  -0.000555  -0.000074
 -2.376509   0.926890   3.976661  -0.430393  -0.136801   0.013464   0.149915   0.063329  -0.006860   0.198456  -0.298160   0.010808  -0.139310  -0.028919   0.141355   0.437196  -0.263117   1.028206   1.975258   0.970233   4.733084   0.043434   1.844942  -0.017131   0.834177  -0.855993  -4.336566   0.362181   0.689572  -1.149802   2.047273  -0.244621  -4.770796   0.052423  -2.191609   0.020349   0.918189   0.460554   4.601122   0.160856   0.190582  -0.477110   1.312602   0.002505   0.000193  -1.426748  -0.210584  -0.022331  -0.158722  -0.000337   0.000106   0.207843  -0.382401   0.414144   1.340992  -0.002425  -0.002727  -1.484662   0.393232   0.289050   0.376625  -0.001033  -0.000178
 -2.376397   0.927654   3.977284  -0.654498  -0.245168   0.019728   0.161069   0.101051  -0.007804   0.263588  -0.420608   0.014883  -0.207106  -0.046343   0.211467   0.636357  -0.280109   2.286772   2.897110   1.599604   7.708008   0.067918   2.719327  -0.021447   1.256258  -0.965481  -5.391116   0.538296   0.931417  -2.485055   3.024725  -0.496849  -7.784934   0.081461  -3.213673   0.025662   1.383890   0.407456   5.764230   0.281302   0.271754  -0.887944   1.968976   0.004314  -0.000101  -2.070014  -0.308282  -0.035568  -0.252047  -0.000610   0.000184   0.365508  -0.554915   0.791367   2.019119  -0.004297  -0.003746  -2.154108   0.570444   0.424215   0.520296  -0.001478  -0.000267
 -2.376335   0.928086   3.977992  -0.861533  -0.361027   0.027827   0.142006   0.139051  -0.016957   0.297732  -0.531012   0.001567  -0.278369  -0.062913   0.282465   0.821291  -0.259387   3.789197   3.769877   2.301559  10.917341   0.089106   3.544741  -0.023846   1.663602  -0.992088  -5.869620   0.708980   1.125424  -4.109525   3.920397  -0.807508 -10.875712   0.105833  -4.176376   0.028464   1.833765   0.283446   6.261621   0.407375   0.343435  -1.380910   2.588336   0.006051  -0.000473  -2.670856  -0.400898  -0.049911  -0.343341  -0.000885   0.000253   0.532382  -0.712808   1.254905   2.662285  -0.006197  -0.004374  -2.779525   0.735561   0.552999   0.646915  -0.001848  -0.000326
 -2.376346   0.927969   3.978755  -1.051590  -0.477790   0.037099   0.102486   0.175905  -0.038550   0.309297  -0.632097  -0.029607  -0.350706  -0.078604   0.350455   0.993885  -0.219364   5.416104   4.591775   3.066390  14.282438   0.105764   4.319971  -0.024966   2.054775  -0.972791  -5.955756   0.874368   1.288184  -5.883920   4.737703  -1.160440 -13.944146   0.124163  -5.080073   0.029578   2.264956   0.119105   6.311363   0.535007   0.407172  -1.934598   3.170299   0.007574  -0.000850  -3.232123  -0.488366  -0.065031  -0.431614  -0.001139   0.000306   0.702662  -0.857207   1.788593   3.268651  -0.007955  -0.004666  -3.363950   0.889410   0.675538   0.758666  -0.002131  -0.000356
 -2.376440   0.927144   3.979546  -1.226307  -0.591754   0.046824   0.049957   0.211097  -0.072900   0.305835  -0.725354  -0.076468  -0.422197  -0.093419   0.413476   1.155706  -0.170638   7.086241   5.360729   3.887002  17.748711   0.117715   5.045794  -0.025265   2.428918  -0.929066  -5.789667   1.034912   1.429720  -7.715103   5.481103  -1.542431 -16.930119   0.136394  -5.926621   0.029587   2.676598  -0.067515   6.074784   0.661906   0.464174  -2.531685   3.716483   0.008818  -0.001191  -3.756344  -0.570732  -0.080645  -0.515813  -0.001353   0.000342   0.872908  -0.989319   2.377182   3.839005  -0.009470  -0.004695  -3.910026   1.032728   0.791977   0.858037  -0.002329  -0.000363
 -2.376479   0.924900   3.979857  -1.206434  -0.732055   0.017117  -0.046419   0.209790  -0.013741   0.235366  -0.776922  -0.150346  -0.603663  -0.200559   0.421327   1.352846  -0.081788   8.111075   6.227360   4.722453  21.066727   0.131584   5.993289  -0.029217   2.806602  -0.784529  -4.566371   1.297246   1.544596  -8.727809   6.128180  -1.915407 -19.990720   0.144440  -6.873908   0.031138   3.051895  -0.374540   4.838947   0.494084   0.343668  -3.020196   4.224977   0.009255  -0.002371  -3.933175  -0.688357   0.147892  -0.432541  -0.000868  -0.000004   0.925023  -0.968687   2.920903   3.859718  -0.007671  -0.003770  -4.212021   1.207196   0.840773   0.999800  -0.002556  -0.000206
 -2.376474   0.921469   3.979876  -1.160073  -0.843907  -0.020261  -0.086825   0.192777   0.060787   0.177569  -0.830606  -0.205178  -0.781128  -0.305488   0.423090   1.521480   0.028977   8.871600   6.987784   5.561728  24.026013   0.136304   6.891705  -0.031892   3.186516  -0.526888  -3.431277   1.533080   1.626785  -9.454842   6.710324  -2.302084 -22.704811   0.143884  -7.766719   0.032075   3.416190  -0.748281   3.695603   0.277093   0.222104  -3.438546   4.671474   0.009086  -0.003046  -4.094404  -0.800613   0.361038  -0.326738  -0.000467  -0.000332   0.919246  -0.945468   3.390034   3.784653  -0.005846  -0.002985  -4.498072   1.370357   0.887193   1.131330  -0.002584  -0.000062
 -2.376356   0.920398   3.980134  -1.194534  -0.952382   0.395135  -0.078280   0.179640  -0.224173   0.168240  -0.879063  -0.399810  -0.934580  -0.403663   0.412376   1.674714   0.146736   9.703423   7.652474   6.391842  26.800444   0.136963   7.731171  -0.032993   3.552437  -0.272170  -2.526311   1.746611   1.693147 -10.150074   7.233770  -2.685827 -25.170079   0.139703  -8.593384   0.031942   3.763226  -1.076025   2.856455   0.160120   0.111833  -4.208132   5.075010   0.008422  -0.003398  -4.236462  -0.908846   0.557117  -0.163169  -0.000148  -0.000750   0.804710  -0.801737   2.964754   4.065387  -0.004669  -0.002240  -4.212912   1.620765   0.710585   1.300236  -0.001808   0.000385
 -2.376744   0.920284   3.980483  -1.213715  -0.958179   0.386518  -0.079508   0.132475  -0.132467   0.160617  -0.950956  -0.453236  -1.075397  -0.496329   0.400794   1.821184   0.243628  10.373143   8.242761   7.182506  29.333693   0.133491   8.512558  -0.033005   3.898783  -0.022934  -1.684004   1.941452   1.744616 -10.765094   7.704087  -3.076160 -27.473893   0.132729  -9.373171   0.030978   4.094072  -1.425158   2.065922  -0.011410   0.107425  -4.202154   5.499200   0.006715  -0.002867  -4.371619  -0.877589   0.879707  -0.223568   0.000050  -0.000602   0.782540  -0.768851   3.003457   4.205706  -0.003775  -0.001743  -4.306684   1.762508   0.727500   1.467759  -0.001511   0.000565
